<svg width="1359.1326171875px" height="143.63251953125px" xmlns="http://www.w3.org/2000/svg" viewBox="-429.56630859375 3.1837402343749943 1359.1326171875 143.63251953125" style="background: rgba(255, 255, 255, 0);" preserveAspectRatio="xMidYMid"><defs><filter id="editing-extrusion" x="-100%" y="-100%" width="300%" height="300%"><feFlood result="color1" flood-color="#e5e0e0"></feFlood><feConvolveMatrix order="5,5" divisor="1" kernelMatrix="1 0 0 0 0 0 1 0 0 0 0 0 1 0 0 0 0 0 1 0 0 0 0 0 1" in="SourceAlpha" result="extrude"></feConvolveMatrix><feComposite in="color1" in2="extrude" result="comp-extrude" operator="in"></feComposite><feOffset dx="2.5" dy="2.5" in="comp-extrude" result="offset-extrude"></feOffset><feMerge><feMergeNode in="offset-extrude"></feMergeNode><feMergeNode in="SourceGraphic"></feMergeNode></feMerge></filter></defs><g filter="url(#editing-extrusion)"><g transform="translate(-258.2300181388855, 102.73500061035156)"><path d="M4.43 0L4.43-54.14L15.32-54.14L15.32-54.14Q22.52-54.14 24.36-48.17L24.36-48.17L24.36-48.17Q25.53-44.42 25.53-39.41L25.53-39.41L25.53-39.41Q25.53-34.39 25.26-31.87L25.26-31.87L25.26-31.87Q24.64-26.33 22.33-23.79L22.33-23.79L22.33-23.79Q20.03-21.26 15.32-21.26L15.32-21.26L10.80-21.26L10.80 0L4.43 0ZM19.16-37.81L19.16-38.85L19.16-38.85Q19.16-44.42 18.29-46.76L18.29-46.76L18.29-46.76Q17.41-49.10 14.83-49.10L14.83-49.10L10.80-49.10L10.80-26.55L14.67-26.55L14.67-26.55Q17.38-26.55 18.27-28.92L18.27-28.92L18.27-28.92Q19.16-31.28 19.16-37.81L19.16-37.81ZM31.19-15.57L31.19-39.44L31.19-39.44Q31.19-48.67 34.51-52.11L34.51-52.11L34.51-52.11Q37.13-54.82 42.11-54.82L42.11-54.82L42.11-54.82Q49.37-54.82 51.40-48.85L51.40-48.85L51.40-48.85Q52.60-45.31 52.60-39.44L52.60-39.44L52.60-15.57L52.60-15.57Q52.60-7.11 50.23-3.25L50.23-3.25L50.23-3.25Q47.87 0.62 41.94 0.62L41.94 0.62L41.94 0.62Q36.02 0.62 33.61-3.26L33.61-3.26L33.61-3.26Q31.19-7.14 31.19-15.57L31.19-15.57ZM46.23-15.50L46.23-39.81L46.23-39.81Q46.23-45.00 45.40-47.17L45.40-47.17L45.40-47.17Q44.57-49.34 42.05-49.34L42.05-49.34L42.05-49.34Q39.53-49.34 38.54-47.13L38.54-47.13L38.54-47.13Q37.56-44.91 37.56-39.84L37.56-39.84L37.56-15.50L37.56-15.50Q37.56-9.32 38.42-7.09L38.42-7.09L38.42-7.09Q39.28-4.86 41.90-4.86L41.90-4.86L41.90-4.86Q44.51-4.86 45.37-7.12L45.37-7.12L45.37-7.12Q46.23-9.38 46.23-15.50L46.23-15.50ZM60.23-15.57L60.23-39.44L60.23-39.44Q60.23-48.67 63.55-52.11L63.55-52.11L63.55-52.11Q66.17-54.82 71.15-54.82L71.15-54.82L71.15-54.82Q78.41-54.82 80.44-48.85L80.44-48.85L80.44-48.85Q81.64-45.31 81.64-39.44L81.64-39.44L81.64-15.57L81.64-15.57Q81.64-7.11 79.27-3.25L79.27-3.25L79.27-3.25Q76.90 0.62 70.98 0.62L70.98 0.62L70.98 0.62Q65.06 0.62 62.65-3.26L62.65-3.26L62.65-3.26Q60.23-7.14 60.23-15.57L60.23-15.57ZM75.27-15.50L75.27-39.81L75.27-39.81Q75.27-45.00 74.44-47.17L74.44-47.17L74.44-47.17Q73.61-49.34 71.09-49.34L71.09-49.34L71.09-49.34Q68.57-49.34 67.58-47.13L67.58-47.13L67.58-47.13Q66.60-44.91 66.60-39.84L66.60-39.84L66.60-15.50L66.60-15.50Q66.60-9.32 67.46-7.09L67.46-7.09L67.46-7.09Q68.32-4.86 70.94-4.86L70.94-4.86L70.94-4.86Q73.55-4.86 74.41-7.12L74.41-7.12L74.41-7.12Q75.27-9.38 75.27-15.50L75.27-15.50ZM105.57-9.63L112.93-54.14L120.89-54.14L120.89 0L115.23 0L115.23-21.72L115.76-41.96L108.40-0.09L102.65-0.09L94.99-41.96L95.52-21.72L95.52 0L89.89 0L89.89-54.14L97.82-54.14L105.57-9.63ZM129.75 0L129.75-54.14L140.64-54.14L140.64-54.14Q147.84-54.14 149.69-48.17L149.69-48.17L149.69-48.17Q150.86-44.42 150.86-39.41L150.86-39.41L150.86-39.41Q150.86-34.39 150.58-31.87L150.58-31.87L150.58-31.87Q149.96-26.33 147.66-23.79L147.66-23.79L147.66-23.79Q145.35-21.26 140.64-21.26L140.64-21.26L136.12-21.26L136.12 0L129.75 0ZM144.49-37.81L144.49-38.85L144.49-38.85Q144.49-44.42 143.61-46.76L143.61-46.76L143.61-46.76Q142.73-49.10 140.15-49.10L140.15-49.10L136.12-49.10L136.12-26.55L140.00-26.55L140.00-26.55Q142.70-26.55 143.60-28.92L143.60-28.92L143.60-28.92Q144.49-31.28 144.49-37.81L144.49-37.81ZM171.87-14.03L171.87-54.14L178.20-54.14L178.20-13.90L178.20-13.90Q178.20-6.31 175.82-2.83L175.82-2.83L175.82-2.83Q173.43 0.65 167.56 0.65L167.56 0.65L167.56 0.65Q161.68 0.65 159.25-2.83L159.25-2.83L159.25-2.83Q156.82-6.31 156.82-13.90L156.82-13.90L156.82-54.14L163.19-54.14L163.19-14.06L163.19-14.06Q163.19-8.64 163.64-7.58L163.64-7.58L163.64-7.58Q164.08-6.52 164.58-5.91L164.58-5.91L164.58-5.91Q165.44-4.74 167.56-4.74L167.56-4.74L167.56-4.74Q169.68-4.74 170.70-6.03L170.70-6.03L170.70-6.03Q171.71-7.32 171.79-9.87L171.79-9.87L171.79-9.87Q171.87-12.43 171.87-14.03L171.87-14.03ZM201.80-31.44L201.80-54.14L208.16-54.14L208.16 0L201.80 0L201.80-26.24L193.12-26.24L193.12 0L186.75 0L186.75-54.14L193.12-54.14L193.12-31.44L201.80-31.44ZM214.62 0L222.84-54.14L230.50-54.14L239.45 0L233.45 0L231.91-10.34L222.10-10.34L220.68 0L214.62 0ZM226.74-44.11L222.81-15.50L231.11-15.50L226.84-44.11L226.74-44.11ZM245.91 0L245.91-54.14L257.26-54.14L257.26-54.14Q262.09-54.14 264.21-52.14L264.21-52.14L264.21-52.14Q266.33-50.14 266.77-45.34L266.77-45.34L266.77-45.34Q266.95-43.37 266.95-39.21L266.95-39.21L266.95-39.21Q266.95-35.04 265.86-32.21L265.86-32.21L265.86-32.21Q264.77-29.38 262.00-28.55L262.00-28.55L262.00-28.55Q264.03-28.21 265.07-26.41L265.07-26.41L265.07-26.41Q266.12-24.61 266.55-20.69L266.55-20.69L266.55-20.69Q266.98-16.77 266.98-9.03L266.98-9.03L266.98-9.03Q266.98-1.29 267.47 0L267.47 0L261.14 0L261.14 0Q260.64-0.98 260.64-18.24L260.64-18.24L260.64-18.24Q260.64-24.06 259.51-24.99L259.51-24.99L259.51-24.99Q258.37-25.93 256.06-25.93L256.06-25.93L252.28-26.15L252.28 0L245.91 0ZM260.64-40.51L260.64-40.88L260.64-40.88Q260.64-47.13 259.52-48.11L259.52-48.11L259.52-48.11Q258.40-49.10 256.28-49.10L256.28-49.10L252.28-49.10L252.28-30.82L256.34-30.82L256.34-30.82Q258.18-30.82 259.04-31.53L259.04-31.53L259.04-31.53Q259.91-32.24 260.27-34.24L260.27-34.24L260.27-34.24Q260.64-36.24 260.64-40.51L260.64-40.51ZM305.56-37.38L305.56-37.38L305.56-37.38Q305.00-39.31 305.00-42.02L305.00-42.02L305.00-42.02Q305.00-47.90 307.17-51.36L307.17-51.36L307.17-51.36Q309.34-54.82 315.46-54.82L315.46-54.82L315.46-54.82Q323.34-54.82 324.75-47.25L324.75-47.25L324.75-47.25Q325.37-43.99 325.37-39.04L325.37-39.04L325.37-35.84L319.28-35.84L319.28-39.47L319.28-39.47Q319.28-44.64 318.75-46.42L318.75-46.42L318.75-46.42Q318.23-48.20 317.46-48.79L317.46-48.79L317.46-48.79Q316.69-49.37 315.46-49.37L315.46-49.37L315.46-49.37Q313.15-49.37 312.14-47.68L312.14-47.68L312.14-47.68Q311.12-45.99 311.12-42.67L311.12-42.67L311.12-42.67Q311.12-39.34 312.05-37.81L312.05-37.81L312.05-37.81Q312.97-36.27 314.32-34.87L314.32-34.87L314.32-34.87Q315.68-33.47 315.83-33.28L315.83-33.28L319.52-29.38L319.52-29.38Q326.17-22.43 326.17-13.81L326.17-13.81L326.17-13.81Q326.17-6.80 324.00-3.09L324.00-3.09L324.00-3.09Q321.83 0.62 315.74 0.62L315.74 0.62L315.74 0.62Q308.39 0.62 306.42-5.84L306.42-5.84L306.42-5.84Q305.28-9.47 305.28-15.35L305.28-15.35L305.28-15.35Q305.28-15.50 305.28-15.66L305.28-15.66L305.28-20.92L311.46-20.92L311.46-15.41L311.46-15.41Q311.46-9.47 312.32-7.15L312.32-7.15L312.32-7.15Q313.19-4.83 315.52-4.83L315.52-4.83L315.52-4.83Q317.86-4.83 318.75-5.92L318.75-5.92L318.75-5.92Q319.65-7.01 319.78-9.26L319.78-9.26L319.78-9.26Q319.92-11.50 319.92-14.30L319.92-14.30L319.92-14.30Q319.92-19.93 314.97-24.89L314.97-24.89L311.43-28.42L311.43-28.42Q306.69-33.28 305.56-37.38ZM348.04-31.44L348.04-54.14L354.41-54.14L354.41 0L348.04 0L348.04-26.24L339.36-26.24L339.36 0L333.00 0L333.00-54.14L339.36-54.14L339.36-31.44L348.04-31.44ZM363.76 0L363.76-54.14L370.13-54.14L370.13 0L363.76 0ZM379.48 0L379.48-54.14L390.37-54.14L390.37-54.14Q397.56-54.14 399.41-48.17L399.41-48.17L399.41-48.17Q400.58-44.42 400.58-39.41L400.58-39.41L400.58-39.41Q400.58-34.39 400.30-31.87L400.30-31.87L400.30-31.87Q399.69-26.33 397.38-23.79L397.38-23.79L397.38-23.79Q395.07-21.26 390.37-21.26L390.37-21.26L385.84-21.26L385.84 0L379.48 0ZM394.21-37.81L394.21-38.85L394.21-38.85Q394.21-44.42 393.33-46.76L393.33-46.76L393.33-46.76Q392.46-49.10 389.87-49.10L389.87-49.10L385.84-49.10L385.84-26.55L389.72-26.55L389.72-26.55Q392.43-26.55 393.32-28.92L393.32-28.92L393.32-28.92Q394.21-31.28 394.21-37.81L394.21-37.81ZM406.85 0L406.85-54.14L417.74-54.14L417.74-54.14Q424.94-54.14 426.79-48.17L426.79-48.17L426.79-48.17Q427.96-44.42 427.96-39.41L427.96-39.41L427.96-39.41Q427.96-34.39 427.68-31.87L427.68-31.87L427.68-31.87Q427.06-26.33 424.76-23.79L424.76-23.79L424.76-23.79Q422.45-21.26 417.74-21.26L417.74-21.26L413.22-21.26L413.22 0L406.85 0ZM421.59-37.81L421.59-38.85L421.59-38.85Q421.59-44.42 420.71-46.76L420.71-46.76L420.71-46.76Q419.84-49.10 417.25-49.10L417.25-49.10L413.22-49.10L413.22-26.55L417.10-26.55L417.10-26.55Q419.81-26.55 420.70-28.92L420.70-28.92L420.70-28.92Q421.59-31.28 421.59-37.81L421.59-37.81ZM434.72 0L434.72-54.14L441.09-54.14L441.09 0L434.72 0ZM467.15-32.95L467.15-54.14L472.78-54.14L472.78 0L468.10 0L455.95-37.16L456.32-23.50L456.32 0L450.44 0L450.44-54.14L455.24-54.14L467.79-17.29L467.15-32.95ZM481.02-16.12L481.02-38.82L481.02-38.82Q481.02-50.76 486.68-53.65L486.68-53.65L486.68-53.65Q488.90-54.76 491.54-54.79L491.54-54.79L491.54-54.79Q496.49-54.79 498.71-52.68L498.71-52.68L498.71-52.68Q500.92-50.57 501.57-47.11L501.57-47.11L501.57-47.11Q502.22-43.65 502.22-38.70L502.22-38.70L502.22-34.51L496.06-34.51L496.06-41.56L496.06-41.56Q496.06-45.71 495.22-47.50L495.22-47.50L495.22-47.50Q494.37-49.28 491.90-49.28L491.90-49.28L491.90-49.28Q489.42-49.28 488.40-47.03L488.40-47.03L488.40-47.03Q487.39-44.79 487.39-39.10L487.39-39.10L487.39-16.33L487.39-16.33Q487.39-9.84 488.28-7.31L488.28-7.31L488.28-7.31Q489.17-4.77 491.80-4.77L491.80-4.77L491.80-4.77Q494.43-4.77 495.40-7.38L495.40-7.38L495.40-7.38Q496.37-10.00 496.37-16.46L496.37-16.46L496.37-23.50L491.97-23.50L491.97-28.42L502.22-28.42L502.22 0L498.86 0L498.00-4.18L498.00-4.18Q496.19 0.52 491.06 0.52L491.06 0.52L491.06 0.52Q485.94 0.52 483.48-3.46L483.48-3.46L483.48-3.46Q481.02-7.44 481.02-16.12L481.02-16.12ZM525.47-15.97L525.47-38.51L525.47-38.51Q525.47-44.67 526.49-47.56L526.49-47.56L526.49-47.56Q527.50-50.45 528.70-51.80L528.70-51.80L528.70-51.80Q531.32-54.76 536.33-54.79L536.33-54.79L536.33-54.79Q543.34-54.76 545.37-48.60L545.37-48.60L545.37-48.60Q546.54-45.07 546.54-39.19L546.54-39.19L546.54-33.19L540.30-33.19L540.30-39.22L540.30-39.22Q540.30-44.42 539.73-46.25L539.73-46.25L539.73-46.25Q539.16-48.08 538.36-48.68L538.36-48.68L538.36-48.68Q537.56-49.28 536.33-49.28L536.33-49.28L536.33-49.28Q533.78-49.28 532.81-46.87L532.81-46.87L532.81-46.87Q531.84-44.45 531.84-39.25L531.84-39.25L531.84-15.81L531.84-15.81Q531.84-9.66 532.72-7.21L532.72-7.21L532.72-7.21Q533.59-4.77 536.10-4.77L536.10-4.77L536.10-4.77Q538.61-4.77 539.45-7.23L539.45-7.23L539.45-7.23Q540.30-9.69 540.30-15.84L540.30-15.84L540.30-21.84L546.60-21.84L546.60-15.90L546.60-15.90Q546.60-7.38 544.28-3.37L544.28-3.37L544.28-3.37Q541.96 0.65 536.18 0.65L536.18 0.65L536.18 0.65Q530.39 0.65 527.93-3.49L527.93-3.49L527.93-3.49Q525.47-7.63 525.47-15.97L525.47-15.97ZM553.71-15.57L553.71-39.44L553.71-39.44Q553.71-48.67 557.03-52.11L557.03-52.11L557.03-52.11Q559.65-54.82 564.63-54.82L564.63-54.82L564.63-54.82Q571.89-54.82 573.92-48.85L573.92-48.85L573.92-48.85Q575.12-45.31 575.12-39.44L575.12-39.44L575.12-15.57L575.12-15.57Q575.12-7.11 572.75-3.25L572.75-3.25L572.75-3.25Q570.38 0.62 564.46 0.62L564.46 0.62L564.46 0.62Q558.54 0.62 556.13-3.26L556.13-3.26L556.13-3.26Q553.71-7.14 553.71-15.57L553.71-15.57ZM568.75-15.50L568.75-39.81L568.75-39.81Q568.75-45.00 567.92-47.17L567.92-47.17L567.92-47.17Q567.09-49.34 564.57-49.34L564.57-49.34L564.57-49.34Q562.05-49.34 561.06-47.13L561.06-47.13L561.06-47.13Q560.08-44.91 560.08-39.84L560.08-39.84L560.08-15.50L560.08-15.50Q560.08-9.32 560.94-7.09L560.94-7.09L560.94-7.09Q561.80-4.86 564.42-4.86L564.42-4.86L564.42-4.86Q567.03-4.86 567.89-7.12L567.89-7.12L567.89-7.12Q568.75-9.38 568.75-15.50L568.75-15.50ZM583.37 0L583.37-54.14L594.72-54.14L594.72-54.14Q599.55-54.14 601.67-52.14L601.67-52.14L601.67-52.14Q603.79-50.14 604.22-45.34L604.22-45.34L604.22-45.34Q604.41-43.37 604.41-39.21L604.41-39.21L604.41-39.21Q604.41-35.04 603.31-32.21L603.31-32.21L603.31-32.21Q602.22-29.38 599.45-28.55L599.45-28.55L599.45-28.55Q601.48-28.21 602.53-26.41L602.53-26.41L602.53-26.41Q603.58-24.61 604.01-20.69L604.01-20.69L604.01-20.69Q604.44-16.77 604.44-9.03L604.44-9.03L604.44-9.03Q604.44-1.29 604.93 0L604.93 0L598.59 0L598.59 0Q598.10-0.98 598.10-18.24L598.10-18.24L598.10-18.24Q598.10-24.06 596.96-24.99L596.96-24.99L596.96-24.99Q595.82-25.93 593.52-25.93L593.52-25.93L589.73-26.15L589.73 0L583.37 0ZM598.10-40.51L598.10-40.88L598.10-40.88Q598.10-47.13 596.98-48.11L596.98-48.11L596.98-48.11Q595.85-49.10 593.73-49.10L593.73-49.10L589.73-49.10L589.73-30.82L593.79-30.82L593.79-30.82Q595.64-30.82 596.50-31.53L596.50-31.53L596.50-31.53Q597.36-32.24 597.73-34.24L597.73-34.24L597.73-34.24Q598.10-36.24 598.10-40.51L598.10-40.51ZM612.68 0L612.68-54.14L623.57-54.14L623.57-54.14Q630.77-54.14 632.61-48.17L632.61-48.17L632.61-48.17Q633.78-44.42 633.78-39.41L633.78-39.41L633.78-39.41Q633.78-34.39 633.51-31.87L633.51-31.87L633.51-31.87Q632.89-26.33 630.58-23.79L630.58-23.79L630.58-23.79Q628.28-21.26 623.57-21.26L623.57-21.26L619.05-21.26L619.05 0L612.68 0ZM627.42-37.81L627.42-38.85L627.42-38.85Q627.42-44.42 626.54-46.76L626.54-46.76L626.54-46.76Q625.66-49.10 623.08-49.10L623.08-49.10L619.05-49.10L619.05-26.55L622.92-26.55L622.92-26.55Q625.63-26.55 626.52-28.92L626.52-28.92L626.52-28.92Q627.42-31.28 627.42-37.81L627.42-37.81ZM639.44-15.57L639.44-39.44L639.44-39.44Q639.44-48.67 642.77-52.11L642.77-52.11L642.77-52.11Q645.38-54.82 650.36-54.82L650.36-54.82L650.36-54.82Q657.62-54.82 659.65-48.85L659.65-48.85L659.65-48.85Q660.85-45.31 660.85-39.44L660.85-39.44L660.85-15.57L660.85-15.57Q660.85-7.11 658.49-3.25L658.49-3.25L658.49-3.25Q656.12 0.62 650.20 0.62L650.20 0.62L650.20 0.62Q644.27 0.62 641.86-3.26L641.86-3.26L641.86-3.26Q639.44-7.14 639.44-15.57L639.44-15.57ZM654.49-15.50L654.49-39.81L654.49-39.81Q654.49-45.00 653.66-47.17L653.66-47.17L653.66-47.17Q652.83-49.34 650.30-49.34L650.30-49.34L650.30-49.34Q647.78-49.34 646.80-47.13L646.80-47.13L646.80-47.13Q645.81-44.91 645.81-39.84L645.81-39.84L645.81-15.50L645.81-15.50Q645.81-9.32 646.67-7.09L646.67-7.09L646.67-7.09Q647.53-4.86 650.15-4.86L650.15-4.86L650.15-4.86Q652.76-4.86 653.63-7.12L653.63-7.12L653.63-7.12Q654.49-9.38 654.49-15.50L654.49-15.50ZM669.10 0L669.10-54.14L680.45-54.14L680.45-54.14Q685.28-54.14 687.40-52.14L687.40-52.14L687.40-52.14Q689.52-50.14 689.95-45.34L689.95-45.34L689.95-45.34Q690.14-43.37 690.14-39.21L690.14-39.21L690.14-39.21Q690.14-35.04 689.05-32.21L689.05-32.21L689.05-32.21Q687.96-29.38 685.19-28.55L685.19-28.55L685.19-28.55Q687.22-28.21 688.26-26.41L688.26-26.41L688.26-26.41Q689.31-24.61 689.74-20.69L689.74-20.69L689.74-20.69Q690.17-16.77 690.17-9.03L690.17-9.03L690.17-9.03Q690.17-1.29 690.66 0L690.66 0L684.33 0L684.33 0Q683.83-0.98 683.83-18.24L683.83-18.24L683.83-18.24Q683.83-24.06 682.69-24.99L682.69-24.99L682.69-24.99Q681.56-25.93 679.25-25.93L679.25-25.93L675.47-26.15L675.47 0L669.10 0ZM683.83-40.51L683.83-40.88L683.83-40.88Q683.83-47.13 682.71-48.11L682.71-48.11L682.71-48.11Q681.59-49.10 679.46-49.10L679.46-49.10L675.47-49.10L675.47-30.82L679.53-30.82L679.53-30.82Q681.37-30.82 682.23-31.53L682.23-31.53L682.23-31.53Q683.09-32.24 683.46-34.24L683.46-34.24L683.46-34.24Q683.83-36.24 683.83-40.51L683.83-40.51ZM696.01 0L704.23-54.14L711.89-54.14L720.84 0L714.84 0L713.30-10.34L703.49-10.34L702.07 0L696.01 0ZM708.13-44.11L704.20-15.50L712.50-15.50L708.23-44.11L708.13-44.11ZM722.90-48.85L722.90-54.14L740.77-54.14L740.77-48.85L735.21-48.85L735.21 0L728.87 0L728.87-48.85L722.90-48.85ZM746.56 0L746.56-54.14L752.92-54.14L752.92 0L746.56 0ZM761.66-15.57L761.66-39.44L761.66-39.44Q761.66-48.67 764.98-52.11L764.98-52.11L764.98-52.11Q767.60-54.82 772.58-54.82L772.58-54.82L772.58-54.82Q779.84-54.82 781.87-48.85L781.87-48.85L781.87-48.85Q783.07-45.31 783.07-39.44L783.07-39.44L783.07-15.57L783.07-15.57Q783.07-7.11 780.70-3.25L780.70-3.25L780.70-3.25Q778.33 0.62 772.41 0.62L772.41 0.62L772.41 0.62Q766.49 0.62 764.07-3.26L764.07-3.26L764.07-3.26Q761.66-7.14 761.66-15.57L761.66-15.57ZM776.70-15.50L776.70-39.81L776.70-39.81Q776.70-45.00 775.87-47.17L775.87-47.17L775.87-47.17Q775.04-49.34 772.52-49.34L772.52-49.34L772.52-49.34Q770.00-49.34 769.01-47.13L769.01-47.13L769.01-47.13Q768.03-44.91 768.03-39.84L768.03-39.84L768.03-15.50L768.03-15.50Q768.03-9.32 768.89-7.09L768.89-7.09L768.89-7.09Q769.75-4.86 772.37-4.86L772.37-4.86L772.37-4.86Q774.98-4.86 775.84-7.12L775.84-7.12L775.84-7.12Q776.70-9.38 776.70-15.50L776.70-15.50ZM808.02-32.95L808.02-54.14L813.65-54.14L813.65 0L808.97 0L796.82-37.16L797.19-23.50L797.19 0L791.31 0L791.31-54.14L796.11-54.14L808.66-17.29L808.02-32.95ZM853.45 0L853.45-54.14L859.82-54.14L859.82-5.26L869.82-5.26L869.82 0L853.45 0ZM875.85 0L875.85-54.14L882.22-54.14L882.22 0L875.85 0ZM907.26-9.63L914.61-54.14L922.57-54.14L922.57 0L916.91 0L916.91-21.72L917.44-41.96L910.09-0.09L904.33-0.09L896.67-41.96L897.20-21.72L897.20 0L891.57 0L891.57-54.14L899.50-54.14L907.26-9.63ZM931.93 0L931.93-54.14L938.29-54.14L938.29 0L931.93 0ZM944.08-48.85L944.08-54.14L961.95-54.14L961.95-48.85L956.38-48.85L956.38 0L950.04 0L950.04-48.85L944.08-48.85ZM967.24 0L967.24-54.14L983.42-54.14L983.42-48.85L973.61-48.85L973.61-30.33L982.90-30.33L982.90-25.04L973.61-25.04L973.61-5.29L983.54-5.29L983.54 0L967.24 0ZM990.93 0L990.93-54.14L1001.11-54.14L1001.11-54.14Q1007.32-54.14 1009.66-50.31L1009.66-50.31L1009.66-50.31Q1012.00-46.48 1012.00-39.44L1012.00-39.44L1012.03-15.66L1012.03-15.66Q1012.03-7.32 1009.48-3.66L1009.48-3.66L1009.48-3.66Q1006.92 0 1000.89 0L1000.89 0L990.93 0ZM1005.66-14.67L1005.66-39.59L1005.66-39.59Q1005.66-44.67 1004.46-46.88L1004.46-46.88L1004.46-46.88Q1003.26-49.10 1000.52-49.10L1000.52-49.10L997.26-49.10L997.26-5.14L1000.52-5.14L1000.52-5.14Q1002.37-5.14 1003.42-5.88L1003.42-5.88L1003.42-5.88Q1005.66-7.48 1005.66-14.67L1005.66-14.67Z" fill="#000000"></path></g></g><style>text {
  font-size: 64px;
  font-family: Arial Black;
  dominant-baseline: central;
  text-anchor: middle;
}</style></svg>